<?xml version="1.0" standalone="no"?><!DOCTYPE svg PUBLIC "-//W3C//DTD SVG 1.1//EN" "http://www.w3.org/Graphics/SVG/1.1/DTD/svg11.dtd"><svg t="1742954509727" class="icon" viewBox="0 0 1024 1024" version="1.1" xmlns="http://www.w3.org/2000/svg" p-id="11952" width="32" height="32" xmlns:xlink="http://www.w3.org/1999/xlink"><path d="M509.44 25.6c203.5712 0 352.5632 87.552 417.1776 260.1984l5.12 14.1824 1.792 5.7856 5.8368 0.3072a66.9696 66.9696 0 0 1 58.7264 53.1456l1.024 6.656 0.3072 6.8096v167.5776c0 36.9664-29.952 66.9696-66.9184 66.9696l3.1744-0.2048-3.584 7.68c-38.4 75.9808-108.1856 114.3808-224.9728 131.072 5.8368 5.632 11.0592 11.8272 15.616 18.6368l4.3008 7.0144 45.1584 80.0256a92.0576 92.0576 0 0 1-72.6016 137.0112l-7.5264 0.3072H323.072a92.0576 92.0576 0 0 1-83.7632-130.2528l3.584-7.0656 45.1584-80.0256c5.5808-9.8304 12.4416-18.5856 20.3776-26.112-109.824-16.1792-177.4592-51.968-216.3712-120.832l-5.12-9.5744-4.096-8.3456-4.8128-0.7168a67.0208 67.0208 0 0 1-52.1216-52.0704l-1.024-6.656-0.3072-6.8608V372.736c0-30.0544 19.7632-55.4496 47.0016-63.9488l6.4-1.6384 3.8912-0.6144 1.8944-6.6048C138.24 116.6336 270.848 33.8432 477.0816 26.1632L493.568 25.7536 509.44 25.6z m119.3472 747.1616H386.304l-6.4512 0.4096c-14.848 1.7408-28.3136 9.6256-37.1712 21.7088l-3.5328 5.4272-45.1584 79.9744-2.304 4.9152a33.3824 33.3824 0 0 0 25.6512 44.3904l5.7344 0.512h368.9984l4.9152-0.3584a33.3824 33.3824 0 0 0 26.5216-44.2368l-2.3552-5.2224-45.2096-79.9744-3.4816-5.4272a54.1696 54.1696 0 0 0-43.6736-22.1184zM509.44 84.2752c-205.5168 0-325.9392 70.656-372.8896 244.4288L133.12 342.016l-5.4272 22.3744-36.2496 0.0512a8.2944 8.2944 0 0 0-7.8336 5.632l-0.4096 2.6624v167.5776c0 3.6864 2.3552 6.7584 5.6832 7.8848l2.6624 0.4096 31.5392 0.1024 7.1168 18.944c27.1872 72.8064 89.2416 108.544 210.688 122.7264l14.2848 1.536 28.0064 2.3552 7.3216 0.512 7.424 0.4608 30.8736 1.4848 32.9216 0.8704 17.2032 0.256 17.7664 0.1536h27.7504l35.584-0.4608c195.3792-3.8912 288.2048-34.6624 325.376-121.856l3.2256-8.1408 7.4752-19.968 21.2992 0.9216 15.0528 0.1024a8.2944 8.2944 0 0 0 7.8336-5.632l0.4096-2.6624V372.736a8.2944 8.2944 0 0 0-5.632-7.8336l-2.6112-0.4608h-14.2336l-27.2384 5.632-7.3216-26.4704c-47.7184-173.2608-179.5584-259.2768-374.272-259.2768z m155.136 191.1296l79.0016 15.36a94.0032 94.0032 0 0 1 76.0832 92.2624v116.7872a56.4224 56.4224 0 0 1-62.6176 56.064l-102.6048-11.4176a56.8832 56.8832 0 0 1-42.0352-26.624 49.664 49.664 0 0 0-42.24-23.5008h-119.296c-15.36 0-29.8496 6.8096-39.6288 18.3296l-3.9424 5.2224c-9.728 14.848-25.6 24.6784-43.3152 26.624l-102.144 11.3664A56.4224 56.4224 0 0 1 199.168 499.8144v-116.736c0-45.056 31.9488-83.7632 76.1344-92.3136l79.0016-15.36a815.104 815.104 0 0 1 310.272 0z m-282.2144 22.3744l-22.9376 4.096-79.0016 15.36a67.072 67.072 0 0 0-53.9648 58.9824l-0.3072 6.8096v118.4256l0.1536 1.6384a29.4912 29.4912 0 0 0 27.7504 26.112l4.8128-0.1024 102.144-11.3664a32.768 32.768 0 0 0 23.7568-14.592 78.9504 78.9504 0 0 1 58.112-35.328l7.936-0.4096h119.296c26.5728 0 51.2 13.7216 65.1776 36.3008a29.952 29.952 0 0 0 16.7936 12.9024l5.376 1.0752 102.5536 11.4176 3.2768 0.2048a29.4912 29.4912 0 0 0 29.0816-24.6784l0.3584-4.8128v-116.736a67.072 67.072 0 0 0-47.6672-64.256l-6.656-1.6384-78.9504-15.3088a788.224 788.224 0 0 0-277.0944-4.096z m-32.768 55.9616c20.7872 0 37.632 16.896 37.632 37.632v36.864a37.5808 37.5808 0 1 1-75.264 0v-36.864c0-20.7872 16.896-37.632 37.632-37.632z m319.6416 0c20.7872 0 37.632 16.896 37.632 37.632v36.864a37.5808 37.5808 0 1 1-75.2128 0v-36.864c0-20.7872 16.8448-37.632 37.5808-37.632z m-86.6816-197.12a18.7904 18.7904 0 0 1 3.7888 37.2224l-3.7888 0.3584h-144.384a18.7904 18.7904 0 0 1-3.7888-37.2224l3.7888-0.3584h144.384z" fill="#646BFE" p-id="11953"></path></svg>