<?xml version="1.0" standalone="no"?><!DOCTYPE svg PUBLIC "-//W3C//DTD SVG 1.1//EN" "http://www.w3.org/Graphics/SVG/1.1/DTD/svg11.dtd"><svg t="1743407427698" class="icon" viewBox="0 0 1024 1024" version="1.1" xmlns="http://www.w3.org/2000/svg" p-id="2628" width="32" height="32" xmlns:xlink="http://www.w3.org/1999/xlink"><path d="M433.493333 548.693333c19.626667 41.386667 68.693333 60.16 110.506667 41.813334a85.12 85.12 0 0 0 44.8-115.2 85.034667 85.034667 0 0 0-117.333333-38.826667c-40.96 20.906667-57.6 70.826667-37.973334 112.213333z" p-id="2629" fill="#bfbfbf"></path><path d="M831.573333 511.146667c75.946667-136.533333 83.626667-274.773333 18.773334-339.626667-64.853333-64.426667-203.946667-56.746667-340.48 19.2-136.106667-74.666667-273.92-81.92-338.346667-17.493333-64.426667 64.426667-57.173333 201.813333 17.92 337.92-75.093333 135.68-82.346667 273.493333-17.92 337.493333 20.053333 20.053333 47.36 34.133333 78.933333 40.96 70.826667 14.933333 162.56-5.546667 258.986667-58.453333 97.28 53.76 190.293333 75.093333 261.546667 60.16 31.146667-6.826667 58.88-20.906667 78.933333-40.96 20.053333-20.053333 34.56-47.36 40.96-78.506667 15.36-71.253333-5.973333-163.84-59.733333-260.693333h0.426666zM232.533333 233.813333c26.026667-26.026667 73.813333-28.586667 142.506667-8.106666 17.066667 5.12 34.133333 11.52 51.2 18.773333-34.133333 25.173333-66.56 53.333333-97.28 84.053333-31.573333 31.146667-60.16 64.426667-85.76 98.986667-7.253333-17.066667-13.653333-34.133333-18.773333-51.626667-20.906667-68.693333-18.346667-116.48 8.106666-142.506666v0.426666z m142.506667 562.346667c-69.12 20.906667-116.48 17.92-142.506667-8.106667-26.026667-26.026667-28.586667-73.386667-8.106666-142.506666 5.12-17.066667 11.52-34.133333 18.773333-51.2a886.613333 886.613333 0 0 0 182.613333 183.04c-17.066667 7.253333-34.133333 13.653333-51.2 18.773333h0.426667z m14.506667-163.413333c-40.106667-40.106667-73.813333-80.64-100.693334-122.026667 26.88-41.386667 60.586667-81.92 100.693334-122.026667 39.68-39.68 79.786667-72.533333 120.32-99.413333 41.386667 26.88 82.346667 60.586667 122.453333 100.693333 39.68 39.68 72.96 79.786667 99.84 120.32-26.88 40.533333-60.16 80.64-99.84 120.32-40.533333 40.106667-81.066667 73.813333-122.453333 100.693334-40.533333-26.88-80.64-59.733333-120.32-99.413334v0.853334z m399.786666 157.013333c-26.026667 26.026667-73.813333 28.586667-142.506666 8.106667-17.92-5.546667-35.84-11.946667-53.76-19.626667 34.986667-25.6 68.266667-54.186667 99.84-85.76 31.146667-30.72 59.306667-63.573333 84.48-97.706667 7.68 17.493333 14.08 35.413333 19.626666 53.333334 20.906667 68.693333 18.346667 116.48-8.106666 142.506666l0.426666-0.853333z m8.106667-415.146667c-5.546667 17.92-11.946667 35.84-19.626667 53.333334-25.173333-34.133333-53.76-66.986667-84.906666-98.133334-31.573333-31.573333-64.853333-60.16-99.84-85.76 17.92-7.68 35.84-14.506667 53.76-20.053333 69.12-20.906667 116.48-17.92 142.506666 8.106667 26.026667 26.026667 28.586667 73.386667 8.106667 142.506666z" p-id="2630" fill="#bfbfbf"></path></svg>