<?xml version="1.0" standalone="no"?><!DOCTYPE svg PUBLIC "-//W3C//DTD SVG 1.1//EN" "http://www.w3.org/Graphics/SVG/1.1/DTD/svg11.dtd"><svg t="1743412476813" class="icon" viewBox="0 0 1156 1024" version="1.1" xmlns="http://www.w3.org/2000/svg" p-id="3475" width="36.125" height="32" xmlns:xlink="http://www.w3.org/1999/xlink"><path d="M319.777451 1023.998743a319.401711 319.401711 0 0 1-225.718926-545.749381L550.526325 21.781562a44.012047 44.012047 0 0 1 62.874352 0 44.012047 44.012047 0 0 1 0 62.874353L155.046647 539.237484a233.263848 233.263848 0 0 0 0 330.090351 238.293796 238.293796 0 0 0 330.090351 0l543.234407-543.234406a141.467293 141.467293 0 0 0 0-199.940442 144.611011 144.611011 0 0 0-199.940442 0l-543.234406 543.234407a50.299482 50.299482 0 0 0 0 69.790531 49.041995 49.041995 0 0 0 69.790531 0l456.4678-456.4678a42.125816 42.125816 0 0 1 62.874353 0 42.75456 42.75456 0 0 1 0 62.874353l-458.982774 454.581569a138.952319 138.952319 0 0 1-188.623058 0 137.066089 137.066089 0 0 1-39.610842-95.569016 134.551115 134.551115 0 0 1 39.610842-95.569016L767.442841 63.907378a233.892592 233.892592 0 0 1 321.916686 0 228.2339 228.2339 0 0 1 0 321.916686l-543.234407 544.491893a318.144224 318.144224 0 0 1-226.347669 93.682786z" p-id="3476" fill="#bfbfbf"></path></svg>