<?xml version="1.0" standalone="no"?><!DOCTYPE svg PUBLIC "-//W3C//DTD SVG 1.1//EN" "http://www.w3.org/Graphics/SVG/1.1/DTD/svg11.dtd"><svg t="1742894342831" class="icon" viewBox="0 0 1024 1024" version="1.1" xmlns="http://www.w3.org/2000/svg" p-id="11421" width="32" height="32" xmlns:xlink="http://www.w3.org/1999/xlink"><path d="M854.5 729H603.1l-217 204.3c-6.7 6.7-15.8 8.4-24.2 6.7h-8.1c-14.6 0-26.4-11.8-26.4-26.4V729h-158C111.2 729 64 681.8 64 623.6V188.8c0-58.2 47.2-105.4 105.4-105.4h685.2c58.2 0 105.4 47.2 105.4 105.4v434.8c0 58.2-47.3 105.4-105.5 105.4zM894 597.2V202c0-29.1-23.6-52.8-52.8-52.8H182.5c-29.1 0-52.8 23.5-52.8 52.8v395.4h1.9c-1.1 4.3-1.9 8.6-1.9 13.2 0 29.1 23.6 52.8 52.8 52.8H367c14.6 0 26.4 11.8 26.4 26.4v146.5l170.5-160.5c3.9-3.9 8.9-5.8 13.9-6.8v-5.6h263.6c29.1 0 52.8-23.6 52.8-52.8 0-4.6-0.8-8.9-1.9-13.2h1.8v-0.2z m-46.1-224c3.7 0 6.5-3 6.5-6.5V238c0-27.2-20.2-49.2-45.2-49.2h-33.9c-7.2 0-13.2 5.9-13.2 13.2s5.9 13.2 13.2 13.2h26.4c17 0 26.4 6.5 26.4 26.4v125.1c0 3.7 3 6.5 6.5 6.5h13.3z m-125.1-158c7.2 0 13.2-5.9 13.2-13.2 0-7.2-5.9-13.2-13.2-13.2s-13.2 5.9-13.2 13.2 5.8 13.2 13.2 13.2z m-59.3 237.2c18.2 0 32.9-14.7 32.9-32.9v-13.2c0-18.2-14.7-32.9-32.9-32.9h-112v-112c0-18.2-14.7-32.9-32.9-32.9h-13.2c-18.2 0-32.9 14.7-32.9 32.9v111.9H360.4c-18.2 0-32.9 14.7-32.9 32.9v13.2c0 18.2 14.7 32.9 32.9 32.9h112.1v112.1c0 18.2 14.7 32.9 32.9 32.9h13.2c18.2 0 32.9-14.7 32.9-32.9v-112h112z" p-id="11422" fill="#646BFE"></path></svg>