<?xml version="1.0" standalone="no"?><!DOCTYPE svg PUBLIC "-//W3C//DTD SVG 1.1//EN" "http://www.w3.org/Graphics/SVG/1.1/DTD/svg11.dtd"><svg t="1743643876301" class="icon" viewBox="0 0 1024 1024" version="1.1" xmlns="http://www.w3.org/2000/svg" p-id="2619" width="32" height="32" xmlns:xlink="http://www.w3.org/1999/xlink"><path d="M611.230476 59.001905C372.784762 7.996952 139.459048 154.282667 89.965714 385.852952c-38.570667 180.46781 46.08 359.424 198.363429 453.583238a25.258667 25.258667 0 0 1 11.702857 26.624L281.84381 951.344762a24.380952 24.380952 0 0 0 30.086095 28.672c155.599238-40.96 267.897905-70.704762 336.700952-89.380572 149.845333-42.179048 270.872381-161.158095 304.859429-320.365714 49.444571-231.472762-103.862857-460.361143-342.25981-511.317333z m-18.334476 76.458666c196.266667 41.935238 322.462476 230.4 281.746286 420.961524-27.989333 131.072-127.609905 228.985905-250.977524 263.753143-20.72381 5.607619-40.618667 11.215238-63.439238 17.700572-37.64419 10.727619-83.285333 23.698286-154.087619 42.569142a24.33219 24.33219 0 0 1-29.598476-30.47619l2.438095-8.094476a42.081524 42.081524 0 0 0-24.868572-52.126476c-12.873143-5.217524-25.453714-10.678857-30.915047-14.140953-122.928762-78.116571-190.854095-223.963429-159.451429-370.980571 40.71619-190.659048 232.838095-311.100952 429.104762-269.165715zM524.190476 658.285714a36.571429 36.571429 0 0 1-36.571428-36.571428V512H377.904762a36.571429 36.571429 0 0 1 0-73.142857H487.619048V329.142857a36.571429 36.571429 0 1 1 73.142857 0V438.857143h109.714285a36.571429 36.571429 0 0 1 0 73.142857H560.761905v109.714286a36.571429 36.571429 0 0 1-36.571429 36.571428z" p-id="2620" fill="#FFFFFF"></path></svg>