<?xml version="1.0" standalone="no"?><!DOCTYPE svg PUBLIC "-//W3C//DTD SVG 1.1//EN" "http://www.w3.org/Graphics/SVG/1.1/DTD/svg11.dtd"><svg t="1742194188032" class="icon" viewBox="0 0 1024 1024" version="1.1" xmlns="http://www.w3.org/2000/svg" p-id="2631" width="32" height="32" xmlns:xlink="http://www.w3.org/1999/xlink"><path d="M482.133333 448c-17.066667 0-34.133333-4.266667-46.933333-8.533333l-258.133333-128c-17.066667-8.533333-27.733333-23.466667-27.733334-38.4s8.533333-29.866667 27.733334-38.4l260.266666-132.266667c14.933333-8.533333 32-10.666667 51.2-10.666667 17.066667 0 34.133333 4.266667 46.933334 8.533334l258.133333 128c17.066667 8.533333 27.733333 23.466667 27.733333 38.4s-8.533333 29.866667-27.733333 38.4L533.333333 437.333333c-14.933333 6.4-32 10.666667-51.2 10.666667zM194.133333 270.933333l258.133334 128c8.533333 4.266667 17.066667 6.4 27.733333 6.4s23.466667-2.133333 29.866667-6.4l262.4-132.266666-258.133334-128c-8.533333-4.266667-17.066667-6.4-27.733333-6.4s-23.466667 2.133333-29.866667 6.4L194.133333 270.933333z m234.666667 644.266667c-8.533333 0-19.2-2.133333-27.733333-8.533333L168.533333 785.066667c-27.733333-12.8-49.066667-42.666667-49.066666-68.266667V392.533333c0-23.466667 17.066667-38.4 40.533333-38.4 8.533333 0 19.2 2.133333 27.733333 8.533334l230.4 121.6c27.733333 12.8 49.066667 42.666667 49.066667 68.266666v326.4c2.133333 19.2-14.933333 36.266667-38.4 36.266667z m-8.533333-44.8c2.133333 2.133333 4.266667 2.133333 6.4 2.133333V548.266667c0-8.533333-8.533333-23.466667-23.466667-29.866667l-234.666667-121.6c-2.133333-2.133333-4.266667-2.133333-6.4-2.133333v322.133333c0 8.533333 8.533333 23.466667 23.466667 29.866667l234.666667 123.733333z m132.266666 44.8c-23.466667 0-38.4-17.066667-38.4-38.4V548.266667c0-23.466667 21.333333-55.466667 49.066667-68.266667l230.4-121.6c8.533333-4.266667 19.2-8.533333 27.733333-8.533333 23.466667 0 38.4 17.066667 38.4 38.4v326.4c0 23.466667-21.333333 55.466667-49.066666 68.266666l-230.4 121.6c-10.666667 8.533333-17.066667 10.666667-27.733334 10.666667z m260.266667-518.4l-230.4 121.6c-14.933333 8.533333-23.466667 23.466667-23.466667 29.866667v322.133333c2.133333 0 4.266667-2.133333 6.4-2.133333L795.733333 746.666667c14.933333-8.533333 23.466667-23.466667 23.466667-29.866667V394.666667c-4.266667 0-4.266667 2.133333-6.4 2.133333z m0 0" p-id="2632"></path></svg>