<?xml version="1.0" standalone="no"?><!DOCTYPE svg PUBLIC "-//W3C//DTD SVG 1.1//EN" "http://www.w3.org/Graphics/SVG/1.1/DTD/svg11.dtd"><svg t="1742784778173" class="icon" viewBox="0 0 1024 1024" version="1.1" xmlns="http://www.w3.org/2000/svg" p-id="5497" width="64" height="64" xmlns:xlink="http://www.w3.org/1999/xlink"><path d="M831.947078 486.973982a133.573917 133.573917 0 0 0-118.045043 58.190617 183.445494 183.445494 0 0 0-27.047544 100.895022 184.384052 184.384052 0 0 1-103.156095-11.134715C587.068674 631.810599 725.292721 569.652439 725.292721 362.742987a362.624814 362.624814 0 1 0-663.006145 203.112557A59.00119 59.00119 0 0 0 170.690064 533.389958C170.690064 420.379001 240.82597 341.412115 341.337036 341.412115c52.516605 0 65.827069 17.064697 70.135905 22.909356 34.897306 45.264109 1.535823 171.500206-30.759117 293.555452-18.60052 70.306552-52.175311 235.620805-52.175311 235.620806A462.15466 462.15466 0 0 0 320.006164 981.338257a42.661743 42.661743 0 0 0 85.323486 0c0-9.172275 0.25597-17.064697 0.810573-24.359855a21.330871 21.330871 0 0 1 24.957119-19.496416 797.77459 797.77459 0 0 0 134.512476 11.476008 622.306842 622.306842 0 0 0 92.447996-6.484584 21.330871 21.330871 0 0 1 24.573164 21.330871V981.338257a42.661743 42.661743 0 0 0 85.323486 0v-74.103447a204.776365 204.776365 0 0 0 103.07077-126.876023c72.524963-18.60052 152.899686-83.190398 152.899686-144.068705 0-70.647846-114.461456-149.3161-191.977842-149.3161zM362.667907 160.099708a405.030586 405.030586 0 0 0-249.229901 81.057312 277.301328 277.301328 0 0 1 499.14239 1.151867A384.638273 384.638273 0 0 0 362.667907 160.099708zM853.277949 661.375186a42.661743 42.661743 0 1 1 42.661743-42.661743 42.661743 42.661743 0 0 1-42.661743 42.661743z" p-id="5498" fill="#5A78FB"></path></svg>